<?xml version="1.0" encoding="UTF-8"?>
<svg width="266px" height="52px" viewBox="0 0 266 52" version="1.1" xmlns="http://www.w3.org/2000/svg" xmlns:xlink="http://www.w3.org/1999/xlink">
    <!-- Generator: Sketch 51.3 (57544) - http://www.bohemiancoding.com/sketch -->
    <title>Group 14</title>
    <desc>Created with Sketch.</desc>
    <defs></defs>
    <g id="Page-1" stroke="none" stroke-width="1" fill="none" fill-rule="evenodd">
        <g id="strona-copy" transform="translate(-252.000000, -22.000000)">
            <g id="logo_25-kasprowisko" transform="translate(252.000000, 22.000000)">
                <g id="Group-14">
                    <path d="M18.2734867,33.6624048 C23.401705,28.9626649 27.3676046,25.3529812 27.3676046,22.42437 C27.3676046,20.4829732 26.2733158,19.5635255 24.700767,19.5635255 C23.2649616,19.5635255 22.1710147,20.585134 21.1454394,21.6070832 L18,18.4738097 C20.2562656,16.0897158 22.307758,15 25.5215691,15 C29.897357,15 32.9744247,17.7927373 32.9744247,22.0838338 C32.9744247,25.557303 29.692242,29.3713083 26.7522595,32.3683673 C27.8462064,32.2321528 29.4187552,32.0959383 30.3759588,32.0959383 L34,32.0959383 L34,37 L18.2734867,37 L18.2734867,33.6624048 Z" id="Fill-3" fill="#C02F2F"></path>
                    <g id="Group-13">
                        <g id="Group-2" transform="translate(81.554981, 9.642384)" fill="#2D2E2C">
                            <path d="M3.38126261,14.8163615 L1.79145666,14.8163615 L1.79145666,0.518083361 L3.38126261,0.518083361 L3.38126261,7.17132839 L5.73500129,7.08867939 L9.3894903,0.518083361 L11.2064114,0.518083361 L7.11833894,7.70854694 L11.4335265,14.8163615 L9.55466494,14.8163615 L5.75564812,8.4937125 L3.38126261,8.57636151 L3.38126261,14.8163615 Z M12.2996611,14.8163615 L16.2225589,0.518083361 L19.6912264,0.518083361 L23.6141242,14.8163615 L22.0449651,14.8163615 L21.0126235,11.1384807 L14.9011617,11.1384807 L13.8688202,14.8163615 L12.2996611,14.8163615 Z M17.420075,1.88179197 L15.2521578,9.71278535 L20.6616274,9.71278535 L18.4937102,1.88179197 L17.420075,1.88179197 Z M29.68326,1.69583171 C27.6185666,1.69583171 26.5862354,2.47410207 26.5862354,4.03066614 C26.5862354,4.89848505 26.8236716,5.49424068 27.2985511,5.81795091 C27.7734306,6.14166114 28.7369397,6.46536651 30.1891074,6.78907674 C31.641275,7.11278697 32.6701651,7.53291522 33.2758085,8.04947409 C33.8814519,8.56603296 34.1842691,9.41662048 34.1842691,10.6012622 C34.1842691,13.5353166 32.6633011,15.0023218 29.6213195,15.0023218 C28.6165021,15.0023218 27.357058,14.8852368 25.8429495,14.6510635 L25.0996636,14.5477522 L25.2648383,13.2253681 C27.136827,13.4733164 28.561444,13.5972887 29.5387322,13.5972887 C31.5758963,13.5972887 32.5944631,12.6399472 32.5944631,10.7252357 C32.5944631,9.95384109 32.3707914,9.39940955 31.9234411,9.06192442 C31.4760909,8.72443929 30.6399026,8.43861433 29.4148512,8.20444098 C27.8043904,7.86006839 26.6619439,7.41583443 25.9874774,6.87172575 C25.3130109,6.32761706 24.9757827,5.41504341 24.9757827,4.1339774 C24.9757827,1.57184538 26.5105151,0.290798593 29.5800259,0.290798593 C30.5848433,0.290798593 31.7892297,0.394108818 33.1932212,0.600732368 L33.8952135,0.704043626 L33.7506856,2.04708998 C31.8374031,1.81291663 30.4816081,1.69583171 29.68326,1.69583171 Z M42.1735602,10.0020569 L38.539718,10.0020569 L38.539718,14.8163615 L36.949912,14.8163615 L36.949912,0.518083361 L42.1735602,0.518083361 C43.7289625,0.518083361 44.8782912,0.89688752 45.6215809,1.6545072 C46.3648705,2.41212688 46.7365097,3.56920141 46.7365097,5.12576548 C46.7365097,8.37664266 45.2155417,10.0020569 42.1735602,10.0020569 Z M38.539718,8.59702376 L42.1529133,8.59702376 C44.1212543,8.59702376 45.1054101,7.43994924 45.1054101,5.12576548 C45.1054101,4.02377322 44.871415,3.21450978 44.4034179,2.69795091 C43.9354207,2.18139204 43.18526,1.92311647 42.1529133,1.92311647 L38.539718,1.92311647 L38.539718,8.59702376 Z M50.802903,9.34086482 L50.802903,14.8163615 L49.213097,14.8163615 L49.213097,0.518083361 L54.4986856,0.518083361 C56.0127941,0.518083361 57.1517995,0.869338126 57.9157361,1.5718582 C58.6796726,2.27437826 59.0616352,3.36946665 59.0616352,4.85715621 C59.0616352,7.06114074 58.1875948,8.44549776 56.4394877,9.01026879 L59.1855162,14.8163615 L57.4305356,14.8163615 L54.8496818,9.34086482 L50.802903,9.34086482 Z M54.5193325,7.93583171 C56.4601442,7.93583171 57.4305356,6.93372252 57.4305356,4.92947409 C57.4305356,2.92522566 56.453262,1.92311647 54.4986856,1.92311647 L50.802903,1.92311647 L50.802903,7.93583171 L54.5193325,7.93583171 Z M63.0041475,7.72920919 C63.0041475,9.82299449 63.2794358,11.3278801 63.8300207,12.2439112 C64.3806056,13.1599422 65.4439067,13.6179509 67.019956,13.6179509 C68.5960053,13.6179509 69.6558653,13.1702733 70.1995679,12.2749046 C70.7432705,11.3795358 71.0151177,9.8780939 71.0151177,7.77053369 C71.0151177,5.66297349 70.7329472,4.1270948 70.1685977,3.16285157 C69.6042481,2.19860834 68.5478292,1.71649396 66.9993092,1.71649396 C65.4507892,1.71649396 64.3978113,2.19516467 63.8403441,3.15252045 C63.2828769,4.10987623 63.0041475,5.63542389 63.0041475,7.72920919 Z M72.6668642,7.77053369 C72.6668642,10.3188908 72.2608139,12.1647002 71.4487012,13.3080171 C70.6365884,14.4513341 69.1603548,15.022984 67.019956,15.022984 C64.8795572,15.022984 63.4033236,14.4375594 62.5912109,13.2666926 C61.7790981,12.0958259 61.3730479,10.2534602 61.3730479,7.73954031 C61.3730479,5.22562046 61.7859803,3.35914906 62.6118577,2.14007012 C63.437735,0.920991173 64.9036454,0.311460844 67.0096326,0.311460844 C69.1156198,0.311460844 70.5849713,0.917547499 71.4177309,2.12973899 C72.2504906,3.34193048 72.6668642,5.22217658 72.6668642,7.77053369 Z M74.4001656,0.518083361 L76.051912,0.518083361 L78.488238,13.4113284 L79.0869961,13.4113284 L81.9981992,0.642056871 L83.856414,0.642056871 L86.7676171,13.4113284 L87.3663752,13.4113284 L89.8027012,0.518083361 L91.4338008,0.518083361 L88.5432445,14.8163615 L85.6320414,14.8163615 L82.9273066,2.60497078 L80.2225718,14.8163615 L77.3113687,14.8163615 L74.4001656,0.518083361 Z M93.8484476,14.8163615 L93.8484476,0.518083361 L95.4382536,0.518083361 L95.4382536,14.8163615 L93.8484476,14.8163615 Z M102.890727,1.69583171 C100.826034,1.69583171 99.7937025,2.47410207 99.7937025,4.03066614 C99.7937025,4.89848505 100.031139,5.49424068 100.506018,5.81795091 C100.980898,6.14166114 101.944407,6.46536651 103.396574,6.78907674 C104.848742,7.11278697 105.877632,7.53291522 106.483276,8.04947409 C107.088919,8.56603296 107.391736,9.41662048 107.391736,10.6012622 C107.391736,13.5353166 105.870768,15.0023218 102.828787,15.0023218 C101.823969,15.0023218 100.564525,14.8852368 99.0504166,14.6510635 L98.3071307,14.5477522 L98.4723053,13.2253681 C100.344294,13.4733164 101.768911,13.5972887 102.746199,13.5972887 C104.783363,13.5972887 105.80193,12.6399472 105.80193,10.7252357 C105.80193,9.95384109 105.578258,9.39940955 105.130908,9.06192442 C104.683558,8.72443929 103.84737,8.43861433 102.622318,8.20444098 C101.011857,7.86006839 99.8694109,7.41583443 99.1949444,6.87172575 C98.5204779,6.32761706 98.1832497,5.41504341 98.1832497,4.1339774 C98.1832497,1.57184538 99.7179821,0.290798593 102.787493,0.290798593 C103.79231,0.290798593 104.996697,0.394108818 106.400688,0.600732368 L107.10268,0.704043626 L106.958153,2.04708998 C105.04487,1.81291663 103.689075,1.69583171 102.890727,1.69583171 Z M111.747185,14.8163615 L110.157379,14.8163615 L110.157379,0.518083361 L111.747185,0.518083361 L111.747185,7.17132839 L114.100924,7.08867939 L117.755413,0.518083361 L119.572334,0.518083361 L115.484261,7.70854694 L119.799449,14.8163615 L117.920587,14.8163615 L114.121571,8.4937125 L111.747185,8.57636151 L111.747185,14.8163615 Z M122.627032,7.72920919 C122.627032,9.82299449 122.902321,11.3278801 123.452906,12.2439112 C124.00349,13.1599422 125.066792,13.6179509 126.642841,13.6179509 C128.21889,13.6179509 129.27875,13.1702733 129.822453,12.2749046 C130.366155,11.3795358 130.638003,9.8780939 130.638003,7.77053369 C130.638003,5.66297349 130.355832,4.1270948 129.791483,3.16285157 C129.227133,2.19860834 128.170714,1.71649396 126.622194,1.71649396 C125.073674,1.71649396 124.020696,2.19516467 123.463229,3.15252045 C122.905762,4.10987623 122.627032,5.63542389 122.627032,7.72920919 Z M132.289749,7.77053369 C132.289749,10.3188908 131.883699,12.1647002 131.071586,13.3080171 C130.259473,14.4513341 128.78324,15.022984 126.642841,15.022984 C124.502442,15.022984 123.026208,14.4375594 122.214096,13.2666926 C121.401983,12.0958259 120.995933,10.2534602 120.995933,7.73954031 C120.995933,5.22562046 121.408865,3.35914906 122.234743,2.14007012 C123.06062,0.920991173 124.52653,0.311460844 126.632517,0.311460844 C128.738505,0.311460844 130.207856,0.917547499 131.040616,2.12973899 C131.873375,3.34193048 132.289749,5.22217658 132.289749,7.77053369 Z" id="KASPROWISKO-"></path>
                            <path d="M148.88636,14.8163615 L140.049516,14.8163615 L140.049516,12.3988781 L142.960719,9.44417608 C143.993066,8.38350852 144.712257,7.57080142 145.118313,7.00603038 C145.524369,6.44125935 145.727395,5.83861636 145.727395,5.19808336 C145.727395,4.55755036 145.55878,4.10642904 145.221547,3.84470588 C144.884314,3.58298271 144.406001,3.4521231 143.786592,3.4521231 C142.864363,3.4521231 141.85956,3.53477128 140.772155,3.70007012 L140.276631,3.76205687 L140.132103,1.55119594 C141.481036,1.13794884 142.878125,0.931328394 144.32341,0.931328394 C147.213981,0.931328394 148.659245,2.23303723 148.659245,4.83649396 C148.659245,5.8558368 148.439014,6.73741739 147.998546,7.48126217 C147.558078,8.22510695 146.759742,9.12734958 145.603514,10.1880171 L143.229128,12.3368913 L148.88636,12.3368913 L148.88636,14.8163615 Z M152.106233,2.62563303 C153.000933,1.49609096 154.322317,0.931328394 156.070424,0.931328394 C157.818531,0.931328394 159.136474,1.49609096 160.024292,2.62563303 C160.912111,3.7551751 161.356013,5.56999139 161.356013,8.07013634 C161.356013,10.5702813 160.915552,12.3609919 160.034616,13.4423218 C159.15368,14.5236517 157.832296,15.0643085 156.070424,15.0643085 C154.308553,15.0643085 152.987169,14.5236517 152.106233,13.4423218 C151.225297,12.3609919 150.784836,10.5702813 150.784836,8.07013634 C150.784836,5.56999139 151.225297,3.7551751 152.106233,2.62563303 Z M158.424163,8.01848071 C158.424163,6.3103927 158.245226,5.11543776 157.887345,4.43358005 C157.529465,3.75172234 156.927272,3.41079859 156.080748,3.41079859 C155.234223,3.41079859 154.628589,3.75516601 154.263827,4.44391118 C153.899064,5.13265634 153.716686,6.3241676 153.716686,8.01848071 C153.716686,9.71279382 153.902505,10.8974177 154.27415,11.572388 C154.645795,12.2473583 155.251429,12.5848383 156.091071,12.5848383 C156.930713,12.5848383 157.529465,12.2473583 157.887345,11.572388 C158.245226,10.8974177 158.424163,9.71279382 158.424163,8.01848071 Z M170.501527,1.17927541 L170.501527,14.8163615 L167.652264,14.8163615 L167.652264,4.40258667 L164.699767,6.30351382 L163.399017,4.1753019 L167.900026,1.17927541 L170.501527,1.17927541 Z M178.573405,12.5848383 C180.4041,12.5848383 181.319433,11.4690879 181.319433,9.23755356 L180.88585,9.38218932 C179.936091,9.6990121 179.213459,9.85742111 178.717933,9.85742111 C177.217589,9.85742111 176.061378,9.49239165 175.249265,8.76232177 C174.437152,8.0322519 174.031102,6.94749453 174.031102,5.50801714 C174.031102,4.06853974 174.478446,2.94590196 175.373146,2.14007012 C176.267847,1.33423827 177.537614,0.931328394 179.182486,0.931328394 C180.827359,0.931328394 182.083362,1.54085872 182.950533,2.75993767 C183.817704,3.97901661 184.251283,5.79038922 184.251283,8.19410985 C184.251283,10.5978305 183.769529,12.3437733 182.806005,13.4319906 C181.842482,14.520208 180.431629,15.0643085 178.573405,15.0643085 C177.499764,15.0643085 176.350436,14.9127869 175.125384,14.609739 L174.485332,14.4651032 L174.733094,12.2749046 C176.137086,12.4815281 177.417177,12.5848383 178.573405,12.5848383 Z M178.965695,7.37795091 C179.598867,7.37795091 180.280206,7.25397864 181.009731,7.00603038 L181.34008,6.90271912 C181.34008,4.57476046 180.569273,3.41079859 179.027635,3.41079859 C178.366933,3.41079859 177.85765,3.59331332 177.49977,3.95834826 C177.14189,4.3233832 176.962952,4.83649065 176.962952,5.49768601 C176.962952,6.75120221 177.630526,7.37795091 178.965695,7.37795091 Z" id="2019"></path>
                            <path d="M4.69027167,21.2271547 C3.00410541,21.2271547 2.16103493,21.8627421 2.16103493,23.1339361 C2.16103493,23.8426549 2.35494114,24.3291887 2.74275938,24.593552 C3.13057762,24.8579154 3.9174434,25.1222747 5.10338034,25.3866381 C6.28931727,25.6510015 7.12957752,25.9941062 7.62418629,26.4159626 C8.11879506,26.837819 8.36609573,27.5324655 8.36609573,28.4999229 C8.36609573,30.8960673 7.12397189,32.0941215 4.63968693,32.0941215 C3.81908602,32.0941215 2.79054003,31.9985022 1.55401811,31.8072606 L0.947001294,31.7228898 L1.08189392,30.6429427 C2.61068466,30.8454338 3.77412193,30.9466778 4.57224062,30.9466778 C6.23592466,30.9466778 7.0677542,30.164849 7.0677542,28.6011679 C7.0677542,27.9711957 6.88508893,27.5184099 6.51975291,27.242797 C6.15441689,26.9671842 5.4715298,26.7337605 4.47107115,26.5425189 C3.15586147,26.2612813 2.22286347,25.8984902 1.67204916,25.4541348 C1.12123485,25.0097794 0.845831824,24.2645109 0.845831824,23.218307 C0.845831824,21.1258992 2.09919661,20.0797109 4.60596378,20.0797109 C5.42656469,20.0797109 6.41014692,20.164081 7.55673997,20.3328235 L8.13003364,20.4171944 L8.01200259,21.5140156 C6.44948852,21.322774 5.34225596,21.2271547 4.69027167,21.2271547 Z M10.6283001,31.942254 L10.6283001,20.2653268 L17.7270246,20.2653268 L17.7270246,21.4127706 L11.9266417,21.4127706 L11.9266417,25.4456977 L16.7153299,25.4456977 L16.7153299,26.5762672 L11.9266417,26.5762672 L11.9266417,30.7948103 L17.7270246,30.7948103 L17.7270246,31.942254 L10.6283001,31.942254 Z M19.9723674,31.942254 L19.9723674,20.2653268 L22.4004347,20.2653268 L26.8687529,30.7948103 L27.2228461,30.7948103 L27.2228461,20.2653268 L28.504326,20.2653268 L28.504326,31.942254 L26.1268435,31.942254 L21.5910789,21.4127706 L21.2707089,21.4127706 L21.2707089,31.942254 L19.9723674,31.942254 Z M31.1712083,31.942254 L31.1712083,23.5051679 L32.4358266,23.5051679 L32.4358266,31.942254 L31.1712083,31.942254 Z M31.1712083,21.5983864 L31.1712083,20.1303335 L32.4358266,20.1303335 L32.4358266,21.5983864 L31.1712083,21.5983864 Z M33.8886753,21.4296447 L33.8886753,20.2653268 L42.3194644,20.2653268 L42.3194644,21.4296447 L38.7616714,21.4296447 L38.7616714,31.942254 L37.4801915,31.942254 L37.4801915,21.4296447 L33.8886753,21.4296447 Z M51.9866546,28.0105719 L49.0190168,28.0105719 L49.0190168,31.942254 L47.7206753,31.942254 L47.7206753,20.2653268 L51.9866546,20.2653268 C53.2568998,20.2653268 54.1955183,20.5746836 54.8025382,21.1934063 C55.409558,21.8121291 55.7130634,22.7570732 55.7130634,24.0282672 C55.7130634,26.6831503 54.4709395,28.0105719 51.9866546,28.0105719 Z M49.0190168,26.8631282 L51.969793,26.8631282 C53.5772715,26.8631282 54.3809987,25.918184 54.3809987,24.0282672 C54.3809987,23.1283069 54.1899027,22.4674084 53.807705,22.045552 C53.4255074,21.6236956 52.8128761,21.4127706 51.969793,21.4127706 L49.0190168,21.4127706 L49.0190168,26.8631282 Z M56.5251721,21.4296447 L56.5251721,20.2653268 L64.9559612,20.2653268 L64.9559612,21.4296447 L61.3981682,21.4296447 L61.3981682,31.942254 L60.1166882,31.942254 L60.1166882,21.4296447 L56.5251721,21.4296447 Z M67.9263519,31.942254 L66.6280103,31.942254 L66.6280103,20.2653268 L67.9263519,20.2653268 L67.9263519,25.6988103 L69.8485718,25.6313136 L72.8330712,20.2653268 L74.31689,20.2653268 L70.9782975,26.1375388 L74.5023674,31.942254 L72.9679638,31.942254 L69.8654334,26.7787573 L67.9263519,26.846254 L67.9263519,31.942254 Z" id="SENiT-PTK"></path>
                        </g>
                        <path d="M36.3329159,34.5317536 L38.9485252,30.812204 C40.2561578,31.9834093 41.7702587,32.8787735 43.3531824,32.8787735 C45.4178655,32.8787735 46.5881966,31.9834093 46.5881966,30.0549325 C46.5881966,28.1953298 45.3493868,27.230747 43.6284735,27.230747 C42.4584864,27.230747 41.9079043,27.4373695 40.6002717,28.264204 L38.0534851,26.6108795 L38.6040673,15.3837007 L51.5437801,15.3837007 L51.5437801,20.3429854 L43.6972962,20.3429854 L43.4220052,23.5115417 C44.1790556,23.236045 44.7640492,23.1671709 45.4870323,23.1671709 C49.2722846,23.1671709 52.5072988,25.3022702 52.5072988,29.9171841 C52.5072988,34.8075947 48.6872911,37.6314358 44.2478784,37.6314358 C40.6690944,37.6314358 38.1223079,36.3224821 36.3329159,34.5317536" id="Fill-5" fill="#C02F2F"></path>
                        <polygon id="Fill-7" fill="#767672" points="17.9653234 39.5115285 17.9653234 42.5654093 34.858216 51.732906 43.3977451 46.9230781"></polygon>
                        <path d="M51.5436424,13.0785166 L53.9524393,13.0785166 L53.9524393,15.4891126 L53.9524393,20.4483974 L53.9524393,22.8589934 L51.7160435,22.8589934 C52.9404005,23.834596 53.8529904,25.1370066 54.3843022,26.6901192 L69.3291664,22.4726093 L64.6161832,8.26490066 L53.6792129,2.76908609 L43.6304005,8.33136424 L41.7233216,13.0785166 L51.5436424,13.0785166 Z" id="Fill-9" fill="#A0A19D"></path>
                        <polyline id="Fill-11" fill="#A0A19D" points="36.1981609 15.3710967 36.3106862 13.0786199 38.8991105 13.0786199 41.0308957 6.84034172 50.8938867 1.36966623 48.9152321 0.375123179 36.0546655 7.81766623 20.5027845 0.0772423841 6.25062147 7.70023576 20.5027845 2.12246093 32.6620471 9.90248742 36.1675348 20.7264079"></polyline>
                        <path d="M54.9160613,29.3569272 C55.0241131,29.9661192 54.9160613,29.3569272 54.9160613,30.0222517 C54.9160613,35.889298 50.429505,40.1470993 44.2481881,40.1470993 C42.7684986,40.1470993 41.3830962,39.9535629 40.0923252,39.5781987 L27.2706435,39.5113907 L46.9897431,44.900106 L57.5884494,38.9307815 L68.7786875,25.345351 L54.9160613,29.3569272 Z" id="Fill-13" fill="#A0A19D"></path>
                        <path d="M30.898326,11.6460715 L19.9689263,5.10302517 L7.62969211,9.38183311 L15.890489,16.9073695 L15.9637853,16.8298861 C18.8209625,13.7970119 21.521912,12.5600318 25.2875498,12.5600318 C27.806119,12.5600318 29.9933066,13.2966411 31.6694851,14.5842437 L30.898326,11.6460715 Z" id="Fill-15" fill="#767672"></path>
                        <path d="M4.3279542,10.4019285 L0.0874393273,24.7546172 L12.1999025,40.2361536 L15.3320266,41.940445 L15.3433824,41.1972927 L15.3554264,40.3387762 L15.3554264,37.9281801 L15.3554264,34.5530013 L15.3554264,33.4954384 L16.1331237,32.779147 L16.2614781,32.6610278 C18.5546528,30.5500344 20.5584277,28.7024848 22.0553229,27.0643126" id="Fill-17" fill="#767672"></path>
                    </g>
                </g>
            </g>
        </g>
    </g>
</svg>